<svg id="Capa_1" enable-background="new 0 0 512.067 512.067" height="512" viewBox="0 0 512.067 512.067" width="512" xmlns="http://www.w3.org/2000/svg"><path d="m364.204 221.276 33.94-151.931.161-.831c4.046-24.549-12.634-47.814-37.183-51.862-22.805-4.318-48.13 12.574-51.788 36.727l-23.164 103.704-26.692-119.68c-3.524-23.066-27.679-41.168-51.79-36.729-24.548 4.048-41.228 27.313-37.182 51.862l.068.415 21.831 97.881c-19.306 1.437-35.263 15.066-40.175 33.201-5.168-2.066-10.799-3.215-16.696-3.215-24.882 0-45.125 20.243-45.125 45.125v124.279c0 37.858 17.891 72.653 48.25 94.599v67.247h234.75v-67.28c30.365-22.096 48.25-57.005 48.25-94.98v-69.728zm-25.508-161.731c.839-7.3 8.275-14.849 17.545-13.294 8.113 1.338 13.662 8.937 12.517 17.036l-32.985 147.654h-30.894zm-126.126-29.272c7.079-1.233 16.241 3.79 17.453 12.879l37.422 167.79h-26.537v-15.125c0-13.442-5.915-25.523-15.271-33.797l-25.583-114.709c-1.147-8.1 4.402-15.7 12.516-17.038zm-31.912 165.544c0-8.34 6.785-15.125 15.125-15.125s15.125 6.785 15.125 15.125v75.313c0 8.34-6.785 15.125-15.125 15.125s-15.125-6.785-15.125-15.125zm-60.25 30.125c0-8.34 6.785-15.125 15.125-15.125s15.125 6.785 15.125 15.125v45.188c0 8.34-6.785 15.125-15.125 15.125s-15.125-6.785-15.125-15.125zm271.25 123.864c.424 33.127-19.222 63.054-48.25 78.7v53.561h-174.75v-53.562c-29.3-15.685-48.384-45.001-48.25-78.283v-36.583c4.731 1.689 9.821 2.616 15.125 2.616 11.568 0 22.13-4.38 30.125-11.563 7.995 7.183 18.557 11.563 30.125 11.563 15.98 0 30.035-8.357 38.055-20.922 6.559 3.722 14.13 5.859 22.195 5.859h38.079l3.423 8.594c-34.24 21.773-56.876 62.582-56.502 104.018h30c0-35.831 19.909-68.045 51.958-84.07l12.327-6.163-20.864-52.378h-58.421c-8.34 0-15.125-6.785-15.125-15.125v-15.125h100.568l50.182 51.361z"/></svg>